<svg width="11" height="11" viewBox="0 0 11 11" fill="none" xmlns="http://www.w3.org/2000/svg">
<path opacity="0.4" d="M6.46036 1.72471C7.54898 2.34316 8.40445 2.82917 9.01391 3.27436C9.62755 3.72261 10.0814 4.19113 10.2439 4.80881C10.3631 5.26179 10.3631 5.73829 10.2439 6.19127C10.0814 6.80895 9.62755 7.27747 9.01391 7.72572C8.40446 8.17091 7.54901 8.65691 6.46041 9.27535L6.46038 9.27536C5.40879 9.8728 4.52202 10.3766 3.84881 10.6629C3.1702 10.9516 2.55153 11.0979 1.95024 10.9275C1.50835 10.8023 1.10627 10.5646 0.782376 10.2378C0.342792 9.7943 0.16634 9.18131 0.0828584 8.44361C-1.19182e-05 7.71132 -6.67224e-06 6.75269 0 5.53344V5.53344V5.46665V5.46664C-6.67224e-06 4.24739 -1.19209e-05 3.28876 0.0828584 2.55647C0.16634 1.81877 0.342792 1.20578 0.782376 0.762276C1.10627 0.435488 1.50835 0.197816 1.95024 0.0725967C2.55153 -0.0977927 3.1702 0.0485017 3.84881 0.337141C4.52202 0.62348 5.40877 1.12727 6.46036 1.72471Z" fill="white"/>
<path d="M9.01426 3.27526C9.6279 3.72352 10.0817 4.19204 10.2443 4.80971C10.3635 5.2627 10.3635 5.73919 10.2443 6.19218C10.0817 6.80985 9.6279 7.27837 9.01426 7.72662C8.40481 8.17181 7.54935 8.65781 6.46074 9.27627C5.40914 9.8737 4.52237 10.3775 3.84916 10.6638C3.17055 10.9525 2.55188 11.0988 1.95059 10.9284C1.5087 10.8032 1.10662 10.5655 0.782726 10.2387C0.343142 9.7952 0.16669 9.18222 0.0832085 8.44452C0.0326359 7.99763 0.0129277 7.46644 0.00524902 6.84318L7.9037 2.55737C8.33559 2.81497 8.70633 3.05033 9.01426 3.27526Z" fill="white"/>
</svg>
