<svg width="17" height="19" viewBox="0 0 17 19" fill="none" xmlns="http://www.w3.org/2000/svg">
<path d="M15.75 14.8241C15.75 15.2846 15.75 15.5149 15.7143 15.7068C15.5558 16.5573 14.8953 17.2226 14.051 17.3822C13.8605 17.4182 13.6319 17.4182 13.1746 17.4182L3.32543 17.4182C2.86819 17.4182 2.63957 17.4182 2.44911 17.3822C1.60474 17.2226 0.944228 16.5573 0.785773 15.7068C0.750029 15.5149 0.750029 15.2846 0.750029 14.8241C0.750029 14.3722 0.750029 14.1463 0.776295 13.9368C0.890979 13.022 1.37407 12.195 2.11224 11.6498C2.28129 11.5249 2.47737 11.4152 2.86951 11.1958L5.01241 9.99662C6.59499 9.11102 7.38628 8.66821 8.25003 8.66821C9.11378 8.66821 9.90507 9.11102 11.4877 9.99662L13.6305 11.1958C14.0227 11.4152 14.2188 11.5249 14.3878 11.6498C15.126 12.195 15.6091 13.022 15.7238 13.9368C15.75 14.1463 15.75 14.3722 15.75 14.8241Z" stroke="#141B34" stroke-width="1.5" stroke-linecap="round"/>
<path d="M7.60217 7.70996L6.94224 6.3792C6.85225 6.19395 6.61228 6.01626 6.4098 5.98224L5.21368 5.78187C4.44876 5.65333 4.26878 5.0938 4.81997 4.54184L5.74987 3.60426C5.90735 3.44547 5.99359 3.13925 5.94485 2.91997L5.67863 1.75934C5.46865 0.84066 5.95235 0.485286 6.75851 0.965419L7.87964 1.63458C8.08211 1.75556 8.41583 1.75556 8.62205 1.63458L9.74318 0.965419C10.5456 0.485287 11.033 0.844441 10.8231 1.75934L10.5568 2.91998C10.5081 3.13925 10.5943 3.44547 10.7518 3.60426L11.6817 4.54184C12.2292 5.0938 12.0529 5.65333 11.288 5.78187L10.0919 5.98224C9.89316 6.01626 9.65319 6.19395 9.5632 6.3792L8.90327 7.70996C8.54331 8.43205 7.95838 8.43205 7.60217 7.70996Z" stroke="#141B34" stroke-width="1.5" stroke-linecap="round" stroke-linejoin="round"/>
<path opacity="0.4" d="M11.5834 14.9182L11.5834 14.0849M8.25004 14.9182L8.25004 12.4182M4.91671 14.9182L4.91671 14.0849" stroke="#141B34" stroke-width="1.5" stroke-linecap="round"/>
</svg>
